<?xml version="1.0" encoding="UTF-8"?>
<!-- Created with Inkscape (http://www.inkscape.org/) -->
<svg width="131.6mm" height="131.6mm" version="1.1" viewBox="0 0 131.6 131.6" xmlns="http://www.w3.org/2000/svg">
 <g transform="translate(-39.328 -87.658)" stroke="#000">
  <g transform="translate(105.13 153.46)" fill="none" stroke-width=".26458">
   <path d="m55.406-4.4617 1.3917-0.11208 3.711 0.60783 5.1581 2.1582v3.6153l-5.1581 2.1582-3.711 0.60783-1.3917-0.11208-0.7331 5.5687 1.3733 0.2519 3.4272 1.5476 4.4238 3.4197-0.9358 3.4922-5.5409 0.7497-3.7418-0.3734-1.3153-0.4684-2.1495 5.1891 1.2613 0.5988 2.9099 2.3819 3.3879 4.4482-1.8076 3.131-5.5462-0.71-3.5177-1.3291-1.1493-0.7929-3.4192 4.456 1.0634 0.9049 2.1942 3.0538 2.1212 5.1735-2.5564 2.5564-5.1735-2.1212-3.0538-2.1942-0.9049-1.0634-4.456 3.4192 0.7929 1.1493 1.3291 3.5177 0.71 5.5462-3.131 1.8076-4.4482-3.3879-2.3819-2.9099-0.5988-1.2613-5.1891 2.1495 0.4684 1.3153 0.3734 3.7418-0.7497 5.5409-3.4922 0.9358-3.4197-4.4238-1.5476-3.4272-0.2519-1.3733-5.5687 0.7331 0.11208 1.3917-0.60783 3.711-2.1582 5.1581h-3.6153l-2.1582-5.1581-0.60783-3.711 0.11208-1.3917-5.5687-0.7331-0.2519 1.3733-1.5476 3.4272-3.4197 4.4238-3.4922-0.9358-0.7497-5.5409 0.3734-3.7418 0.4684-1.3153-5.1891-2.1495-0.5988 1.2613-2.3819 2.9099-4.4482 3.3879-3.131-1.8076 0.71-5.5462 1.3291-3.5177 0.7929-1.1493-4.456-3.4192-0.9049 1.0634-3.0538 2.1942-5.1735 2.1212-2.5564-2.5564 2.1212-5.1735 2.1942-3.0538 1.0634-0.9049-3.4192-4.456-1.1493 0.7929-3.5177 1.3291-5.5462 0.71-1.8076-3.131 3.3879-4.4482 2.9099-2.3819 1.2613-0.5988-2.1495-5.1891-1.3153 0.4684-3.7418 0.3734-5.5409-0.7497-0.9358-3.4922 4.4238-3.4197 3.4272-1.5476 1.3733-0.2519-0.7331-5.5687-1.3917 0.11208-3.711-0.60783-5.1581-2.1582v-3.6153l5.1581-2.1582 3.711-0.60783 1.3917 0.11208 0.7331-5.5687-1.3733-0.2519-3.4272-1.5476-4.4238-3.4197 0.9358-3.4922 5.5409-0.7497 3.7418 0.3734 1.3153 0.4684 2.1495-5.1891-1.2613-0.5988-2.9099-2.3819-3.3879-4.4482 1.8076-3.131 5.5462 0.71 3.5177 1.3291 1.1493 0.7929 3.4192-4.456-1.0634-0.9049-2.1942-3.0538-2.1212-5.1735 2.5564-2.5564 5.1735 2.1212 3.0538 2.1942 0.9049 1.0634 4.456-3.4192-0.7929-1.1493-1.3291-3.5177-0.71-5.5462 3.131-1.8076 4.4482 3.3879 2.3819 2.9099 0.5988 1.2613 5.1891-2.1495-0.4684-1.3153-0.3734-3.7418 0.7497-5.5409 3.4922-0.9358 3.4197 4.4238 1.5476 3.4272 0.2519 1.3733 5.5687-0.7331-0.11208-1.3917 0.60783-3.711 2.1582-5.1581h3.6153l2.1582 5.1581 0.60783 3.711-0.11208 1.3917 5.5687 0.7331 0.2519-1.3733 1.5476-3.4272 3.4197-4.4238 3.4922 0.9358 0.7497 5.5409-0.3734 3.7418-0.4684 1.3153 5.1891 2.1495 0.5988-1.2613 2.3819-2.9099 4.4482-3.3879 3.131 1.8076-0.71 5.5462-1.3291 3.5177-0.7929 1.1493 4.456 3.4192 0.9049-1.0634 3.0538-2.1942 5.1735-2.1212 2.5564 2.5564-2.1212 5.1735-2.1942 3.0538-1.0634 0.9049 3.4192 4.456 1.1493-0.7929 3.5177-1.3291 5.5462-0.71 1.8076 3.131-3.3879 4.4482-2.9099 2.3819-1.2613 0.5988 2.1495 5.1891 1.3153-0.4684 3.7418-0.3734 5.5409 0.7497 0.9358 3.4922-4.4238 3.4197-3.4272 1.5476-1.3733 0.2519z"/>
   <circle r="39.688"/>
  </g>
  <path transform="matrix(.26458 0 0 .26458 39.328 87.658)" d="m241.86 0.5-8.1562 19.496-2.2988 14.025 0.42383 5.2598-21.047 2.7695-0.95117-5.1895-5.8496-12.953-12.926-16.721-13.199 3.5371-2.832 20.943 1.4102 14.141 1.7715 4.9727-19.613 8.123-2.2637-4.7676-9.002-10.998-16.812-12.805-11.834 6.832 2.6836 20.963 5.0234 13.295 2.998 4.3438-16.842 12.924-3.4199-4.0195-11.543-8.293-19.553-8.0176-9.6621 9.6621 8.0176 19.553 8.293 11.543 4.0195 3.4199-12.924 16.842-4.3438-2.998-13.295-5.0234-20.963-2.6836-6.832 11.834 12.805 16.812 10.998 9.002 4.7676 2.2637-8.123 19.613-4.9727-1.7715-14.141-1.4102-20.943 2.832-3.5371 13.199 16.721 12.926 12.953 5.8496 5.1895 0.95117-2.7695 21.047-5.2598-0.42383-14.025 2.2988-19.496 8.1562v13.664l19.496 8.1582 14.025 2.2969 5.2598-0.42383 2.7695 21.047-5.1895 0.95312-12.953 5.8477-16.721 12.926 3.5371 13.199 20.943 2.832 14.141-1.4102 4.9727-1.7715 8.123 19.613-4.7676 2.2637-10.998 9.002-12.805 16.812 6.832 11.834 20.963-2.6836 13.295-5.0234 4.3438-2.998 12.924 16.842-4.0195 3.4199-8.293 11.543-8.0176 19.553 9.6621 9.6621 19.553-8.0176 11.543-8.293 3.4199-4.0195 16.842 12.924-2.998 4.3438-5.0234 13.295-2.6836 20.963 11.834 6.832 16.812-12.805 9.002-10.998 2.2637-4.7676 19.613 8.123-1.7715 4.9727-1.4102 14.143 2.832 20.941 13.199 3.5371 12.926-16.721 5.8496-12.953 0.95117-5.1894 21.047 2.7695-0.42383 5.2598 2.2988 14.027 8.1562 19.494h13.664l8.1582-19.494 2.2969-14.027-0.42383-5.2598 21.047-2.7695 0.95312 5.1894 5.8477 12.953 12.926 16.721 13.199-3.5371 2.832-20.941-1.4102-14.143-1.7715-4.9727 19.613-8.123 2.2637 4.7676 9.002 10.998 16.812 12.805 11.834-6.832-2.6836-20.963-5.0234-13.295-2.998-4.3438 16.842-12.924 3.4199 4.0195 11.543 8.293 19.553 8.0176 9.6621-9.6621-8.0176-19.553-8.293-11.543-4.0195-3.4199 12.924-16.842 4.3438 2.998 13.295 5.0234 20.963 2.6836 6.832-11.834-12.805-16.812-10.998-9.002-4.7676-2.2637 8.123-19.613 4.9727 1.7715 14.143 1.4102 20.941-2.832 3.5371-13.199-16.721-12.926-12.953-5.8477-5.1894-0.95312 2.7695-21.047 5.2598 0.42383 14.027-2.2969 19.494-8.1582v-13.664l-19.494-8.1562-14.027-2.2988-5.2598 0.42383-2.7695-21.047 5.1894-0.95117 12.953-5.8496 16.721-12.926-3.5371-13.199-20.941-2.832-14.143 1.4102-4.9727 1.7715-8.123-19.613 4.7676-2.2637 10.998-9.002 12.805-16.812-6.832-11.834-20.963 2.6836-13.295 5.0234-4.3438 2.998-12.924-16.842 4.0195-3.4199 8.293-11.543 8.0176-19.553-9.6621-9.6621-19.553 8.0176-11.543 8.293-3.4199 4.0195-16.842-12.924 2.998-4.3438 5.0234-13.295 2.6836-20.963-11.834-6.832-16.812 12.805-9.002 10.998-2.2637 4.7676-19.613-8.123 1.7715-4.9727 1.4102-14.141-2.832-20.943-13.199-3.5371-12.926 16.721-5.8477 12.953-0.95312 5.1895-21.047-2.7695 0.42383-5.2598-2.2969-14.025-8.1582-19.496h-13.664zm6.832 98.188a150 150 0 0 1 150 150 150 150 0 0 1-150 150 150 150 0 0 1-150-150 150 150 0 0 1 150-150zm0 85.99a64.01 64.01 0 0 0-64.01 64.01 64.01 64.01 0 0 0 64.01 64.01 64.01 64.01 0 0 0 64.01-64.01 64.01 64.01 0 0 0-64.01-64.01zm0 19.516a44.494 44.494 0 0 1 44.494 44.494 44.494 44.494 0 0 1-44.494 44.494 44.494 44.494 0 0 1-44.494-44.494 44.494 44.494 0 0 1 44.494-44.494z" fill="#df9900" stroke-width="5.915"/>
 </g>
</svg>
